PathFileType	4	(X/Y/Z)	c:/Users/goper/Files/vsCode/490R/osim_files/C06/C06_ROM.trc
DataRate	CameraRate	NumFrames	NumMarkers	Units                	OrigDataRate	OrigDataStartFrame	OrigNumFrames
250.00	250.00	8	36	mm	250.0	856	3421
                Frame#	Time	LPSIS			LASIS			LTH1			LTH2			LTH3			LTH4			LLFE			LMFE			LSH1			LSH2			LSH3			LSH4			LLMAL			LMMAL			LCAL			LMTP5			LTOE			LMTP1			RPSIS			RASIS			RTH1			RTH2			RTH3			RTH4			RLFE			RMFE			RSH1			RSH2			RSH3			RSH4			RLMAL			RMMAL			RCAL			RMTP1			RTOE			RMTP5		
		X1	Y1	Z1	X2	Y2	Z2	X3	Y3	Z3	X4	Y4	Z4	X5	Y5	Z5	X6	Y6	Z6	X7	Y7	Z7	X8	Y8	Z8	X9	Y9	Z9	X10	Y10	Z10	X11	Y11	Z11	X12	Y12	Z12	X13	Y13	Z13	X14	Y14	Z14	X15	Y15	Z15	X16	Y16	Z16	X17	Y17	Z17	X18	Y18	Z18	X19	Y19	Z19	X20	Y20	Z20	X21	Y21	Z21	X22	Y22	Z22	X23	Y23	Z23	X24	Y24	Z24	X25	Y25	Z25	X26	Y26	Z26	X27	Y27	Z27	X28	Y28	Z28	X29	Y29	Z29	X30	Y30	Z30	X31	Y31	Z31	X32	Y32	Z32	X33	Y33	Z33	X34	Y34	Z34	X35	Y35	Z35	X36	Y36	Z36

856	3.42000	-259.62527	972.57324	405.80893	-71.61250	978.95026	313.93634	-156.09003	800.97064	226.71651	-145.87819	739.22443	219.44489	-82.39223	804.79333	240.92958	-81.34714	744.02081	232.21996	-162.91289	478.32156	234.61816	-166.16673	443.40265	345.74664	-257.81161	391.62527	203.76918	-262.45114	347.77243	199.35002	-194.03043	378.97195	201.70821	-208.90480	337.56439	196.60283	-297.02029	99.34930	203.94414	-288.44235	107.37168	283.26599	-368.68091	74.60350	248.33139	-193.42082	28.47663	182.73671	-142.27652	52.62486	252.19684	-171.33636	36.40246	297.62854	-266.66669	968.45056	476.66443	-84.25804	977.68903	563.97217	-175.89255	793.79523	649.91876	-167.15416	731.28516	653.32257	-100.70982	796.84509	645.34235	-102.69375	734.15131	650.78656	-186.23712	463.94937	645.06415	-156.97151	458.04141	542.69159	-258.68918	407.03244	667.99176	-266.84146	359.26495	676.96155	-201.53391	387.36911	669.81854	-218.08153	344.50446	678.35010	-305.11496	99.77827	679.32263	-275.99060	112.23263	599.42902	-372.83914	71.61621	635.61945	-169.45810	45.05527	603.24878	-147.83311	50.37099	644.31403	-196.16267	27.34530	711.43304
857	3.42400	-260.00723	972.80316	404.12454	-71.95823	979.27472	312.23984	-156.47702	801.14294	224.80920	-146.04442	739.33075	217.71542	-82.65334	804.92041	239.28596	-81.53859	744.17859	230.65096	-163.07993	478.39694	233.49385	-166.39102	443.82718	344.74921	-258.02664	391.52991	202.94029	-262.55872	347.68869	198.56227	-194.09644	378.94397	200.85475	-209.00302	337.47021	195.91273	-297.03693	99.29174	203.89386	-288.36456	107.45138	283.18985	-368.65829	74.54256	248.35080	-193.40448	28.45132	182.74649	-142.65656	52.33959	252.38983	-171.32198	36.40233	297.63651	-267.12616	968.34930	474.90619	-84.62538	977.26898	562.29669	-176.38434	793.51605	647.89154	-167.56047	731.32275	651.87061	-101.16961	796.63861	643.58966	-103.05528	733.98340	649.17346	-186.15257	463.85150	643.91833	-156.93834	457.62354	541.62335	-258.68924	407.01193	666.97772	-266.83838	359.25687	676.09943	-201.49098	387.35767	668.95074	-218.08598	344.50211	677.53607	-305.08575	99.77210	679.22186	-275.95877	112.08539	599.27100	-372.85828	71.56514	635.58740	-169.45222	45.05361	603.24249	-147.83534	50.38295	644.30609	-196.16380	27.36865	711.43848
858	3.42800	-260.18137	972.98584	402.36105	-72.24928	979.66406	310.50644	-156.67812	801.29163	222.87180	-146.15762	739.51086	215.98228	-82.74921	805.16663	237.54890	-81.74191	744.28619	229.07742	-163.17850	478.47318	232.35852	-166.63658	444.21619	343.71802	-258.15363	391.44553	202.05991	-262.76260	347.55624	197.94743	-194.31496	378.86044	200.01823	-209.13979	337.38495	195.09477	-297.05783	99.22026	203.80756	-288.34311	107.51405	283.09393	-368.68716	74.46473	248.36522	-193.40894	28.43468	182.74110	-142.60106	52.33612	252.34457	-171.30090	36.40977	297.64139	-267.48438	968.20776	473.12802	-84.92134	976.85040	560.64075	-176.70975	793.36462	645.90161	-167.80878	730.90033	649.64209	-101.54803	796.51331	641.83777	-103.40583	733.88599	647.54193	-186.06462	463.74924	642.81696	-156.60707	457.23160	540.60736	-258.66626	406.95877	665.92169	-266.76511	359.26233	675.22180	-201.46291	387.35388	667.99371	-218.01709	344.52686	676.73553	-305.02359	99.79556	679.09131	-275.94742	111.97430	599.09418	-372.85855	71.51873	635.52637	-169.44524	45.06574	603.22168	-147.82764	50.40084	644.26721	-196.14017	27.42056	711.41388
859	3.43200	-260.56668	973.20557	400.54556	-72.64581	980.03284	308.87067	-156.77905	801.45087	220.93893	-146.31470	739.64795	214.21135	-82.94381	805.28290	235.89728	-81.88396	744.46228	227.59068	-163.32892	478.52939	231.18253	-166.92773	444.65970	342.65958	-258.33911	391.33679	201.11954	-262.91193	347.38654	196.97618	-194.52577	378.79608	199.04401	-209.23732	337.35052	194.32166	-297.08401	99.14861	203.70023	-288.27493	107.56815	282.98572	-368.66806	74.38338	248.34796	-193.40767	28.41057	182.73477	-142.58627	52.38988	252.30772	-171.27670	36.41594	297.61615	-267.92194	968.08960	471.30966	-85.30228	976.42627	558.97083	-177.21579	793.09760	643.88086	-168.22783	730.64172	647.74402	-102.06943	796.38123	640.09344	-103.82971	733.74451	645.95953	-186.00650	463.61209	641.76459	-156.45903	456.86697	539.54761	-258.68283	406.89029	664.85248	-266.70447	359.27277	674.26953	-201.42458	387.33566	667.11102	-218.04871	344.55087	675.89349	-304.99210	99.81313	678.92572	-275.90363	111.86484	598.92535	-372.86606	71.49733	635.43207	-169.39957	45.08405	603.17035	-147.79852	50.44458	644.23413	-196.12399	27.47317	711.37421
860	3.43600	-260.80603	973.39520	398.84161	-73.03111	980.38794	307.22110	-156.89534	801.59143	218.97635	-146.11600	740.10535	211.95306	-83.21764	805.40680	234.19586	-82.08909	744.59613	226.00691	-163.52110	478.60956	229.98883	-167.15190	445.06311	341.68442	-258.57898	391.23877	200.13286	-262.91498	347.58182	196.24124	-194.69676	378.73441	198.08257	-209.40161	337.26837	193.46858	-297.10327	99.05914	203.54398	-288.29816	107.64530	282.83078	-368.69949	74.32236	248.28714	-193.40031	28.35190	182.69160	-142.62022	52.38309	252.29486	-171.29135	36.42122	297.60440	-268.35797	967.87073	469.52304	-85.66032	976.04126	557.37213	-177.83945	792.83215	641.85425	-168.77306	730.64789	646.26135	-102.60528	796.26978	638.36548	-104.27679	733.67261	644.32935	-185.98238	463.48849	640.63599	-156.29153	456.41904	538.53699	-258.59610	406.88104	663.80609	-266.68405	359.29840	673.39978	-201.39139	387.32135	666.19281	-217.95300	344.54965	675.18665	-304.94974	99.86591	678.72852	-275.87329	111.75442	598.72040	-372.89493	71.47819	635.33746	-169.40689	45.09286	603.13574	-147.78595	50.48149	644.19873	-196.11269	27.54463	711.34021
861	3.44000	-261.29044	973.54694	396.97552	-73.55698	980.65106	305.64572	-157.22374	801.72998	217.09586	-146.68817	739.91461	210.68205	-83.44935	805.56281	232.57439	-82.37714	744.67419	224.52054	-163.80740	478.62326	228.87686	-167.48572	445.41769	340.62622	-258.80746	391.11066	199.18889	-263.19067	347.34851	195.22424	-194.96651	378.65781	197.21516	-209.58691	337.16724	192.64633	-297.19205	98.94877	203.39175	-288.35776	107.68075	282.64404	-368.70789	74.24802	248.17494	-193.41193	28.28160	182.65440	-142.60846	52.43026	252.18993	-171.31390	36.44553	297.55917	-268.63080	967.74200	467.74890	-86.16705	975.64307	555.75702	-178.40819	792.65344	639.87109	-169.15729	730.24799	643.98541	-103.25731	796.15472	636.63226	-104.76878	733.58295	642.74335	-186.10269	463.42603	639.59534	-156.10364	456.08966	537.50269	-258.50769	406.87195	662.85138	-266.66602	359.31485	672.45490	-201.42332	387.29773	665.35321	-217.97882	344.53482	674.34021	-304.90784	99.90780	678.49127	-275.85623	111.65977	598.51801	-372.93939	71.45121	635.21149	-169.42072	45.09146	603.07855	-147.77234	50.54071	644.16199	-196.14540	27.62277	711.30011
862	3.44400	-261.76245	973.76978	395.33267	-73.95045	981.02844	304.02991	-157.19130	802.08508	214.97169	-146.91539	740.01245	208.93115	-83.72231	805.66541	230.95306	-82.62532	744.76990	223.01859	-163.97987	478.71628	227.68816	-167.92841	445.70773	339.59183	-259.01117	390.94937	198.13170	-263.42401	347.05032	194.32643	-195.08322	378.57422	196.25339	-209.80913	337.04611	191.81180	-297.26392	98.80183	203.14769	-288.42270	107.73022	282.36530	-368.73892	74.17325	248.01318	-193.42334	28.18327	182.59949	-142.33020	52.60476	252.02953	-171.33482	36.47022	297.49432	-269.32352	967.65167	465.97369	-86.64297	975.24323	554.22284	-179.05132	792.36200	637.83002	-169.81586	730.25659	642.54376	-103.92139	796.09064	634.84967	-105.31293	733.46820	641.13062	-185.99878	463.31204	638.52930	-155.94139	455.66464	536.53625	-258.51825	406.82040	661.77502	-266.64972	359.30951	671.53345	-201.35500	387.50006	664.96649	-218.01161	344.55405	673.59912	-304.87634	99.96761	678.26373	-275.79987	111.58440	598.28387	-372.96695	71.39189	635.08563	-169.42932	45.07350	603.02051	-147.79262	50.52895	644.10449	-196.15791	27.70292	711.22687
863	3.44800	-262.31412	974.01544	393.53558	-74.46284	981.29175	302.47284	-157.43622	802.19385	213.03891	-147.22194	740.04144	207.25880	-83.96867	805.81586	229.31401	-82.96365	744.86694	221.55788	-164.26353	478.70532	226.55875	-168.35547	445.93790	338.54645	-259.19223	390.77420	197.12425	-263.59958	346.88565	193.33325	-195.36333	378.42615	195.29266	-209.97906	336.88580	190.96736	-297.29727	98.61409	202.90277	-288.51886	107.77055	282.09570	-368.75662	74.11224	247.84134	-193.43770	28.04085	182.53502	-142.33897	52.59523	251.96593	-171.34219	36.49752	297.41656	-269.60419	967.41785	464.19308	-87.15107	974.83270	552.66522	-179.77756	792.16370	635.76605	-170.27359	729.84747	640.25372	-104.56239	795.99011	633.15521	-105.82965	733.42468	639.54437	-185.96866	463.25299	637.49744	-155.65240	455.40625	535.55347	-258.58282	406.81934	660.69287	-266.66800	359.34741	670.64789	-201.43837	387.52216	664.08282	-217.97641	344.63095	672.79279	-304.75916	99.93704	677.95624	-275.77069	111.47194	598.07599	-373.03406	71.34335	634.96417	-169.71481	44.71655	603.30743	-147.78101	50.55733	644.06409	-196.16560	27.76453	711.17786
